PathFileType	4	(X/Y/Z)	C:/Users/beibeiliu/ov580/test_trc/User1\sequence.26_training_dense_right.trc
DataRate	CameraRate	NumFrames	NumMarkers	Units	OrigDataRate	OrigDataStartFrame	OrigNumFrames
120	120	8	19	mm	120	42	330
Frame#	Time	ThumbCMC			ThumbMCP			ThumbIP			ThumbTip			IndexMCP			IndexPIP			IndexTip			MiddleMCP			MiddlePIP			MiddleTip			RingMCP			RingPIP			RingTip			PinkyMCP			PinkyPIP			PinkyTip			BackHand1			BackHand2			BackHand3	
		X0	Y0	Z0	X1	Y1	Z1	X2	Y2	Z2	X3	Y3	Z3	X4	Y4	Z4	X5	Y5	Z5	X6	Y6	Z6	X7	Y7	Z7	X8	Y8	Z8	X9	Y9	Z9	X10	Y10	Z10	X11	Y11	Z11	X12	Y12	Z12	X13	Y13	Z13	X14	Y14	Z14	X15	Y15	Z15	X16	Y16	Z16	X17	Y17	Z17	X18	Y18	Z18	
41	0.341667	169.92	6.36556	42.7412	148.311	38.2638	26.6168	118.387	35.8608	12.0212	90.1385	24.5086	13.7551	139.643	-6.09705	-35.0357	123.006	-5.11306	-56.901	107.561	-1.55391	-76.6387	115.123	-21.2597	-39.8088	99.3311	-15.7435	-59.5942	80.2691	-8.22868	-84.1176	86.2374	-14.021	-15.5149	75.9337	14.1298	-6.97176	92.817	14.6001	26.7061	77.7683	-21.645	14.8643	81.5188	8.49048	27.7405	103.673	9.42181	46.2226	128.788	-50.1017	24.6826	142.032	-56.0287	51.4046	163.907	-31.8235	28.0791	
42	0.35	166.958	2.90445	41.7912	146.321	34.0096	26.2849	115.898	35.2083	10.3039	87.1871	22.1955	12.421	133.463	-11.0754	-36.2942	121.107	-9.09731	-54.8975	105.228	-6.09391	-76.0863	111.46	-26.2386	-38.876	99.7316	-20.6147	-57.6285	83.2834	-13.035	-83.9784	89.064	-16.1493	-16.2555	74.7375	12.729	-6.74632	90.7138	16.9344	21.1584	74.8483	-22.4329	14.7598	75.2008	6.29029	26.2088	104.542	7.80479	45.2702	126.344	-51.8069	25.4204	138.461	-59.1305	52.426	159.652	-34.3222	25.9908	
43	0.358333	167.818	2.42755	41.4313	144.576	30.1335	24.7713	116.676	32.5614	11.3606	90.3124	22.2541	12.9077	134.493	-15.5844	-32.3718	122.109	-12.0445	-60.7253	107.526	-10.331	-77.8645	113.823	-28.4289	-34.7823	102.539	-21.266	-61.1067	87.0625	-16.1841	-84.0432	88.3146	-21.3722	-17.3447	75.8043	11.6156	-8.63074	87.8405	12.0985	20.7951	72.4633	-22.0078	12.859	77.7779	5.60002	22.8117	103.471	5.91604	42.1505	124.588	-53.2242	26.3175	137.301	-61.3176	53.1514	156.522	-39.8042	31.0386	
44	0.366667	163.011	-0.978732	39.5946	144.272	28.7025	23.957	116.072	30.5568	10.6909	88.1323	20.2689	11.558	136.093	-17.8837	-38.3645	125.771	-14.9395	-58.3001	106.321	-15.934	-79.285	115.052	-29.9935	-38.598	101.169	-25.6595	-62.238	88.2146	-19.5602	-87.4343	86.8884	-20.8998	-20.4249	77.1305	10.1832	-12.2538	89.6704	10.3915	17.1757	77.3201	-21.9514	10.0339	78.3989	5.42151	22.2338	105.678	4.22432	36.0654	122.129	-55.3429	22.7768	135.823	-60.7823	58.1454	158.309	-40.1711	31.3937	
45	0.375	164.264	-1.71811	40.1418	142.858	28.1613	19.9325	114.62	30.3227	5.43776	85.0295	17.3579	7.88152	138.928	-21.7966	-33.8125	129.772	-17.2272	-59.4696	113.142	-17.8817	-83.2654	119.878	-33.0802	-38.8402	109.68	-27.6385	-61.8971	92.3081	-23.1772	-89.0517	93.8217	-25.8277	-20.2251	80.0382	6.80216	-16.6433	92.9007	10.298	13.7022	74.8034	-22.7916	8.11119	79.7626	2.6335	15.1308	104.992	4.07211	38.7444	125.309	-54.0777	25.3223	134.784	-63.9941	59.5898	160.655	-40.4295	28.6404	
46	0.383333	167.629	0.392281	39.2285	144.319	26.5599	18.8125	113.334	27.388	2.05797	90.2493	15.4672	6.69417	145.704	-21.4681	-36.8862	132.579	-21.8841	-59.9583	117.302	-23.0604	-85.4776	123.056	-36.058	-38.9206	113.939	-30.5958	-65.7224	98.9968	-26.3568	-91.3438	97.6458	-28.63	-23.1526	83.8603	4.09558	-21.1979	96.498	7.92091	9.83075	75.7871	-24.5681	4.66776	81.8528	3.63212	16.8998	107.762	0.50059	31.8749	121.674	-56.3241	23.0358	134.595	-63.5757	55.1418	159.22	-43.4425	30.4885	
47	0.391667	167.122	-2.90205	41.9803	145.174	27.9661	15.4721	117.342	27.3041	-0.289222	92.5924	8.6758	3.70945	151.202	-23.2615	-36.8041	137.028	-26.1659	-61.9167	129.092	-24.9361	-85.0947	125.321	-39.6934	-41.6785	118.336	-34.1046	-70.254	108.144	-29.5185	-97.4326	100.355	-32.0963	-25.3883	84.8363	0.68267	-23.2565	98.0717	5.39663	5.05374	81.2679	-26.9007	1.13644	86.3512	0.174703	8.29264	109.748	-0.346695	28.8105	126.029	-59.2025	25.1293	139.292	-62.2557	58.2942	163.131	-43.3781	33.9688	
48	0.4	169.569	0.455248	40.451	146.584	28.8532	14.7072	117.319	23.4887	-3.39606	93.5181	9.82511	-0.0606388	153.071	-27.1146	-41.7302	148.689	-25.9249	-61.3662	134.482	-29.756	-83.7569	131.275	-41.6405	-42.9522	127.203	-36.6006	-69.2708	116.903	-33.8011	-98.0312	106.89	-33.0918	-30.0093	90.6442	-4.43038	-31.0344	101.839	0.867985	5.28842	85.871	-31.0849	-1.39424	83.7623	-1.06046	6.46801	109.939	-1.89547	26.0562	129.739	-58.3152	26.2977	139.186	-62.9991	55.9754	166.001	-42.7851	33.0889	
